<svg fill="#7CA0AB" xmlns="http://www.w3.org/2000/svg"  viewBox="0 0 24 24" width="50px" height="50px" fill-rule="evenodd" clip-rule="evenodd"><path d="M 12 1.25 C 11.586 1.25 11.25 1.586 11.25 2 L 11.25 2.296875 C 8.647118 2.5855698 6.507838 4.3607449 5.6582031 6.75 L 5 6.75 C 4.586 6.75 4.25 7.086 4.25 7.5 L 4.25 9.25 L 4 9.25 C 3.536 9.25 3.0916719 9.4346719 2.7636719 9.7636719 C 2.4346719 10.091672 2.25 10.536 2.25 11 L 2.25 11.5 C 2.25 11.964 2.4346719 12.408328 2.7636719 12.736328 C 2.9058624 12.878952 3.0718181 12.989271 3.25 13.074219 L 3.25 18.75 L 3 18.75 C 2.586 18.75 2.25 19.086 2.25 19.5 L 2.25 22 C 2.25 22.414 2.586 22.75 3 22.75 L 21 22.75 C 21.414 22.75 21.75 22.414 21.75 22 L 21.75 19.5 C 21.75 19.086 21.414 18.75 21 18.75 L 20.75 18.75 L 20.75 13.074219 C 20.928182 12.989271 21.094138 12.878952 21.236328 12.736328 C 21.565328 12.408328 21.75 11.964 21.75 11.5 L 21.75 11 C 21.75 10.536 21.565328 10.091672 21.236328 9.7636719 C 20.908328 9.4346719 20.464 9.25 20 9.25 L 19.75 9.25 L 19.75 7.5 C 19.75 7.086 19.414 6.75 19 6.75 L 18.341797 6.75 C 17.492162 4.3607449 15.352882 2.5855698 12.75 2.296875 L 12.75 2 C 12.75 1.586 12.414 1.25 12 1.25 z M 12 3.75 C 14.093 3.75 15.901141 4.977 16.744141 6.75 L 7.2558594 6.75 C 8.0988594 4.977 9.907 3.75 12 3.75 z M 5.75 8.25 L 6.1894531 8.25 L 17.810547 8.25 L 18.25 8.25 L 18.25 9.25 L 5.75 9.25 L 5.75 8.25 z M 4 10.75 L 5 10.75 L 19 10.75 L 20 10.75 C 20.066 10.75 20.130734 10.775266 20.177734 10.822266 C 20.224734 10.869266 20.25 10.934 20.25 11 L 20.25 11.5 C 20.25 11.566 20.224734 11.630734 20.177734 11.677734 C 20.130734 11.724734 20.066 11.75 20 11.75 L 7 11.75 L 4 11.75 C 3.934 11.75 3.8692656 11.724734 3.8222656 11.677734 C 3.7752656 11.630734 3.75 11.566 3.75 11.5 L 3.75 11 C 3.75 10.934 3.7752656 10.869266 3.8222656 10.822266 C 3.8692656 10.775266 3.934 10.75 4 10.75 z M 4.75 13.25 L 6.25 13.25 L 6.25 18.75 L 4.75 18.75 L 4.75 13.25 z M 7.75 13.25 L 9.75 13.25 L 9.75 18.75 L 7.75 18.75 L 7.75 13.25 z M 11.25 13.25 L 12.75 13.25 L 12.75 18.75 L 11.25 18.75 L 11.25 13.25 z M 14.25 13.25 L 16.25 13.25 L 16.25 18.75 L 14.25 18.75 L 14.25 13.25 z M 17.75 13.25 L 19.25 13.25 L 19.25 18.75 L 17.75 18.75 L 17.75 13.25 z M 3.75 20.25 L 4 20.25 L 7 20.25 L 10.5 20.25 L 13.5 20.25 L 17 20.25 L 20 20.25 L 20.25 20.25 L 20.25 21.25 L 3.75 21.25 L 3.75 20.25 z"/></svg>
