<svg fill="#7CA0AB" xmlns="http://www.w3.org/2000/svg"  viewBox="0 0 32 32" width="50px" height="50px"><path d="M 21.46875 4 C 20.027344 4.023438 18.648438 4.539063 17.59375 5.59375 C 15.398438 7.789063 15.5625 11.378906 17.59375 14 L 9 22.5625 L 6.4375 20 L 5 21.4375 L 7.5625 24 L 7 24.5625 L 4.4375 22 L 3 23.4375 L 5.5625 26 L 4 27.59375 L 5.40625 29 L 19 15.40625 C 21.621094 17.4375 25.210938 17.601563 27.40625 15.40625 C 29.820313 12.992188 29.390625 8.890625 26.75 6.25 C 25.265625 4.765625 23.320313 3.96875 21.46875 4 Z M 22 6 C 23.148438 6.097656 24.347656 6.660156 25.34375 7.65625 C 27.339844 9.652344 27.511719 12.488281 26 14 C 24.488281 15.511719 21.652344 15.339844 19.65625 13.34375 C 17.660156 11.347656 17.488281 8.511719 19 7 C 19.753906 6.246094 20.851563 5.902344 22 6 Z"/></svg>
