<svg width="746" height="160" viewBox="0 0 746 160" fill="none" xmlns="http://www.w3.org/2000/svg">
<path d="M66.4153 152.772C66.4153 156.765 69.6556 160 73.6501 160C77.6445 160 80.8848 156.765 80.8848 152.772C80.8848 150.026 79.3501 147.636 77.0911 146.413V93.8485H77.0831V93.8322H70.2108V146.412C67.9508 147.635 66.4153 150.025 66.4153 152.772Z" fill="url(#paint0_linear_324_2543)"/>
<path d="M67.6032 93.1337C66.6118 92.5621 66.1153 92.2755 66.1153 92.2755L63.1396 90.5591C63.1396 90.5591 62.6431 90.2724 61.6518 89.7008L61.5536 89.8711C61.3519 90.218 61.1916 90.4958 61.0718 90.7034L61.069 90.7083L61.0164 90.8001C60.8773 91.0429 60.8062 91.1639 60.8062 91.1639L60.1394 92.3165C59.9513 92.643 59.7264 93.0322 59.4707 93.4748L59.4311 93.5432L59.4305 93.5443L55.306 100.682C54.5731 101.95 53.8101 103.271 53.0465 104.591L51.6719 106.968C51.1695 107.837 50.6748 108.692 50.1976 109.519L47.7244 113.799C45.2307 113.805 42.8076 115.1 41.4706 117.413C39.4725 120.87 40.6579 125.292 44.1181 127.286C47.5783 129.283 52.004 128.098 54.0004 124.641C55.4147 122.194 55.234 119.265 53.7805 117.054L66.7613 94.591C66.7613 94.591 67.0431 94.1052 67.6032 93.1337Z" fill="url(#paint1_linear_324_2543)"/>
<path d="M57.1764 83.3475L58.8948 86.3211C58.9447 86.4072 59.2277 86.8979 59.7448 87.7944L59.753 87.8087L59.0957 88.1877C58.9688 88.2609 58.857 88.3254 58.7601 88.381L58.6595 88.4386L58.4029 88.5872L58.2959 88.6489C58.2959 88.6489 58.1189 88.7524 57.8101 88.9309C57.5012 89.1083 57.0595 89.3621 56.5292 89.6685L56.5201 89.6541L56.5279 89.6676C56.2906 89.8044 56.0355 89.9518 55.7665 90.1071L55.3927 90.3232C55.175 90.449 54.9501 90.5791 54.7196 90.7119C54.058 91.0938 53.35 91.5019 52.6434 91.9087L50.4734 93.1595C49.8464 93.5209 49.2608 93.8584 48.7572 94.149L48.7493 94.1358L48.7576 94.1502C48.2272 94.4564 47.7864 94.7101 47.4762 94.8888C47.2995 94.9911 47.1661 95.0678 47.0843 95.1147H47.136V95.2864H46.7924V95.458H46.4893L46.4488 95.4813V95.6296H46.277V95.8013H45.9334V95.9729H45.5926L45.5898 95.9745V96.1446H45.418V96.3162H44.9604L44.7307 96.4487V96.4879H44.6628L41.0662 98.5625C41.1431 101.136 39.8386 103.667 37.4511 105.045C33.9927 107.039 29.5653 105.855 27.5689 102.398C25.5708 98.9429 26.7579 94.5213 30.2164 92.5251C32.595 91.154 35.43 91.2852 37.6183 92.6235L41.2946 90.503V90.4803H41.3338L41.4664 90.4039V90.3087H41.6314L41.6382 90.3048V90.137H41.8101V89.9654H42.1537V89.7938H42.4973V89.6221H42.6691V89.4505H43.0127V89.2788H43.3563V89.1072H43.6999V89.1205L54.8511 82.6891C54.8511 82.6891 55.3373 82.4076 56.3097 81.8481C56.8819 82.8384 57.1688 83.3345 57.1688 83.3345L57.1764 83.3475Z" fill="url(#paint2_linear_324_2543)"/>
<path d="M55.5272 79.3221H17.1599C16.0694 81.934 13.4885 83.7706 10.4798 83.7706C6.48524 83.7706 3.24498 80.5334 3.24498 76.5427C3.24498 72.5503 6.48524 69.3148 10.4798 69.3148C13.0398 69.3148 15.2901 70.6438 16.5761 72.6492H55.5219V72.6634H55.5272V79.3221Z" fill="url(#paint3_linear_324_2543)"/>
<path d="M58.8888 65.3224L59.7487 63.8356L59.7417 63.8316L59.7453 63.8255C58.7729 63.2642 58.2867 62.9845 58.2867 62.9845L35.5087 49.8461C35.5052 47.3517 34.2081 44.9269 31.8904 43.591C28.4303 41.5948 24.0045 42.7809 22.0081 46.236C20.0101 49.6929 21.1955 54.1145 24.6557 56.1107C27.0999 57.5202 30.028 57.3421 32.2399 55.8962C33.4488 56.5934 34.8357 57.3927 36.3144 58.2446L36.5448 58.3776C38.0657 59.256 39.6795 60.188 41.2921 61.1172L43.8232 62.5781C44.6568 63.059 45.4772 63.5323 46.2711 63.9904C47.8601 64.9065 49.3442 65.7626 50.6156 66.4966L50.6197 66.4895L50.621 66.4903L50.6169 66.4974C51.4147 66.9573 52.1284 67.3692 52.7327 67.718L53.6881 68.2692L54.855 68.9405C54.855 68.9405 54.9752 69.0122 55.2186 69.1517C55.4024 69.2583 55.6559 69.4037 55.9792 69.5892L56.3121 69.7803C56.8837 68.7906 57.1703 68.2952 57.1703 68.2952L58.031 66.8096L58.8888 65.3224Z" fill="url(#paint4_linear_324_2543)"/>
<path d="M63.1429 61.0627C63.1429 61.0627 62.648 61.3487 61.6564 61.9192L61.6549 61.9166C61.164 61.0666 60.8866 60.5886 60.8256 60.4835L60.8146 60.4646C60.8146 60.4646 60.4123 59.768 59.7072 58.5488L56.7895 53.5001C55.5815 51.4106 54.1718 48.9717 52.663 46.3594L52.0467 45.2927C50.7185 42.9952 49.3255 40.5855 47.9337 38.1754L43.2019 29.9904L43.2037 29.9894L43.2029 29.9879L43.2015 29.9888C42.5266 28.8203 41.8716 27.6868 41.2457 26.6037L41.2223 26.5632C40.4576 25.2398 39.7367 23.9922 39.0766 22.849L38.2799 21.4703C35.5924 21.6738 32.8978 20.3629 31.46 17.8755C29.4636 14.4203 30.6491 9.99879 34.1092 8.00258C37.5677 6.00636 41.9934 7.19244 43.9915 10.6493C45.3041 12.919 45.2421 15.6057 44.0648 17.748L66.7641 57.0284C66.7641 57.0284 67.0458 57.5142 67.6059 58.4839L67.6075 58.488C66.6158 59.061 66.1193 59.3471 66.1193 59.3471L66.1169 59.3429L66.1156 59.3436L66.1176 59.3471L63.1429 61.0627Z" fill="url(#paint5_linear_324_2543)"/>
<path d="M70.2111 57.7996H77.0867V38.2261C79.1638 36.9556 80.5503 34.6676 80.5503 32.0571C80.5503 28.0664 77.31 24.8293 73.3156 24.8293C69.3211 24.8293 66.0808 28.0664 66.0808 32.0571C66.0808 34.9376 67.7689 37.4255 70.2103 38.5869L70.2111 57.7996Z" fill="url(#paint6_linear_324_2543)"/>
<path d="M79.6939 58.484L79.6969 58.4857L79.6936 58.4914C80.6856 59.065 81.1818 59.3496 81.1818 59.3496L82.6696 60.2095L82.6702 60.2084L84.1582 61.0656C84.1582 61.0656 84.6548 61.3534 85.6469 61.9255L86.2785 60.8343L86.2773 60.8336L86.4295 60.5697L86.4873 60.4692C86.4873 60.4692 86.7419 60.0336 87.182 59.2688C87.4338 58.8338 87.7481 58.2909 88.1114 57.6626L89.042 56.0533C89.7916 54.7545 90.6645 53.2422 91.6001 51.6261L91.5947 51.623L91.5958 51.6212L91.6013 51.6244L91.6487 51.5425C92.5807 49.9284 93.5731 48.2097 94.5656 46.4925C95.4839 44.9028 96.4027 43.3144 97.2743 41.8077L98.3437 39.9561C98.8024 39.1613 99.2401 38.4029 99.6491 37.695L100.118 36.8839L100.114 36.8815L100.114 36.8804L100.119 36.883L100.659 35.9479C103.123 35.9124 105.506 34.6197 106.828 32.3342C108.825 28.8773 107.639 24.4558 104.181 22.4613C100.719 20.4651 96.2947 21.6494 94.2966 25.1063C92.8695 27.5774 93.0674 30.5413 94.5608 32.7594L80.5357 57.0285C80.5357 57.0285 80.2557 57.5142 79.6939 58.484Z" fill="url(#paint7_linear_324_2543)"/>
<path d="M87.5534 63.8251L89.2786 66.813L89.2805 66.8119L89.2812 66.8131L89.2791 66.8143L90.9967 69.7862C91.9321 69.2476 92.4164 68.9669 92.4525 68.946L92.4544 68.9449C92.4544 68.9449 93.1526 68.5428 94.3724 67.8389C95.2674 67.323 96.4432 66.645 97.8309 65.8445L99.4297 64.9223C101.178 63.9151 103.169 62.7664 105.302 61.536L106.577 60.8005C108.358 59.7728 110.219 58.6994 112.106 57.6113L114.773 56.0736L114.764 56.0577L114.773 56.0719C116.398 55.1339 118.025 54.1957 119.617 53.2775L128.72 48.0276C130.947 49.5502 133.939 49.7623 136.431 48.3246C139.89 46.3301 141.075 41.9085 139.079 38.4516C137.081 34.9947 132.655 33.8104 129.197 35.8066C126.932 37.1129 125.642 39.4569 125.58 41.8898L89.0104 62.9841C89.0104 62.9841 88.5241 63.2639 87.5534 63.8251Z" fill="url(#paint8_linear_324_2543)"/>
<path d="M117.21 79.2579C118.285 81.9038 120.883 83.7706 123.917 83.7706C127.911 83.7706 131.151 80.5334 131.151 76.5427C131.151 72.5503 127.911 69.3148 123.917 69.3148C121.474 69.3148 119.314 70.5243 118.004 72.3767H91.6878V79.2425H91.6962V79.2579H97.6851V79.2425H97.6868V79.2579H117.21Z" fill="url(#paint9_linear_324_2543)"/>
<path d="M90.1313 83.3345C90.1313 83.3345 90.4165 82.8385 90.9904 81.8481C91.9611 82.4076 92.4473 82.6892 92.4473 82.6892L124.321 101.073C126.361 100.172 128.789 100.222 130.869 101.422C134.329 103.418 135.515 107.84 133.518 111.295C131.52 114.752 127.094 115.936 123.634 113.942C120.974 112.407 119.658 109.438 120.1 106.577L118.464 105.633C116.829 104.689 114.92 103.589 112.874 102.409L112.104 101.964C110.286 100.915 108.376 99.8135 106.466 98.7124L104.328 97.4794C102.87 96.6386 101.433 95.8096 100.057 95.0161L99.3508 94.6088C97.5727 93.5831 95.9132 92.6259 94.4672 91.7914C93.8361 91.4277 93.245 91.0865 92.7026 90.7734L92.2201 90.4948L92.2185 90.4939C91.5603 90.114 90.9862 89.7826 90.5127 89.5101L89.0138 88.6447L87.5547 87.8045L87.5592 87.7967L87.5543 87.7938C88.1264 86.8017 88.4133 86.3074 88.4133 86.3074L90.1313 83.3345Z" fill="url(#paint10_linear_324_2543)"/>
<path d="M84.1554 90.559C84.1554 90.559 84.6519 90.2724 85.6433 89.7008C86.2051 90.6723 86.4851 91.158 86.4851 91.158L97.6421 110.464C100.189 110.418 102.683 111.718 104.045 114.078C106.044 117.535 104.858 121.954 101.398 123.951C97.9395 125.945 93.512 124.763 91.5156 121.306C90.1293 118.907 90.2763 116.044 91.6515 113.849L91.0918 112.881C90.5043 111.866 89.8202 110.68 89.0877 109.41C88.8795 109.05 88.6677 108.683 88.453 108.312L87.9924 107.514L87.9917 107.513L87.9902 107.51C87.5942 106.825 87.1913 106.128 86.7883 105.432C86.5623 105.041 86.3359 104.649 86.1107 104.26L86.1065 104.253C85.9185 103.928 85.7314 103.605 85.546 103.284L83.698 100.083C83.263 99.3301 82.8545 98.6228 82.4843 97.9833L81.0645 95.5293C80.7315 94.9545 80.5383 94.6176 80.5276 94.599C80.5276 94.599 80.4579 94.4771 80.317 94.2344C80.1767 93.9926 79.9653 93.6276 79.6858 93.1424L79.6941 93.1376L79.6919 93.1337C80.6832 92.5621 81.1797 92.2754 81.1797 92.2754L84.1554 90.559Z" fill="url(#paint11_linear_324_2543)"/>
<path d="M128.264 128.457L128.267 128.459L126.996 129.681C125.888 130.735 124.744 131.756 123.572 132.741C122.401 133.726 121.199 134.676 119.971 135.589C117.511 137.414 114.94 139.089 112.278 140.605C109.617 142.121 106.862 143.476 104.036 144.659C102.623 145.249 101.192 145.797 99.7453 146.301L99.7443 146.298L99.7425 146.298L99.7437 146.302C98.2974 146.805 96.8344 147.263 95.3571 147.676L95.3557 147.676L93.6558 148.14L96.3708 140.19C105.096 137.324 113.227 132.673 120.145 126.629L128.264 128.457Z" fill="url(#paint12_linear_324_2543)"/>
<path d="M73.6363 6.86572H73.6689C82.7334 6.87947 91.7773 8.66452 100.132 12.1472C107.609 15.2518 114.525 19.6969 120.472 25.1913L128.65 23.5804L127.405 22.3342C120.385 15.2848 111.968 9.62573 102.771 5.80838C93.5795 1.97557 83.6199 0.0120087 73.6706 0H73.6346C67.8705 0.00514221 62.0961 0.648804 56.4728 1.95329L54.7582 2.36864L61.2462 7.9767C65.3294 7.23671 69.4812 6.8698 73.6363 6.86572Z" fill="url(#paint13_linear_324_2543)"/>
<path d="M0.139435 56.9341L8.19344 53.9257C11.1265 45.1492 15.8736 36.9839 22.0286 30.0618L20.4481 21.7505L19.2128 23.0069C10.4662 31.9822 3.98563 43.1561 0.606186 55.2347L0.139435 56.9341Z" fill="url(#paint14_linear_324_2543)"/>
<path d="M14.1519 110.714C17.309 116.083 21.1924 121.029 25.6739 125.365C32.8851 132.334 41.6322 137.699 51.1055 140.958L53.3973 148.89L51.7141 148.371C48.8348 147.509 46.0075 146.469 43.2538 145.267C40.5003 144.065 37.8176 142.695 35.2261 141.175C30.096 138.165 25.319 134.556 21.033 130.431L20.9005 130.304C18.0517 127.551 15.4239 124.572 13.042 121.408C11.8115 119.774 10.6462 118.09 9.5511 116.363C9.33102 116.015 9.11366 115.665 8.89911 115.314C5.97906 110.538 3.58568 105.441 1.79633 100.135L1.21733 98.4697L9.46762 101.109C10.0561 102.601 10.6974 104.073 11.3891 105.521C12.236 107.29 13.1586 109.023 14.1519 110.714Z" fill="url(#paint15_linear_324_2543)"/>
<path d="M66.7786 75.8096C66.7786 72.0163 69.8556 68.9439 73.6508 68.9439C77.446 68.9439 80.5231 72.0163 80.5231 75.8096C80.5231 79.6012 77.446 82.6754 73.6508 82.6754C69.8556 82.6754 66.7786 79.6012 66.7786 75.8096Z" fill="url(#paint16_linear_324_2543)"/>
<path d="M141.373 62.5258C141.336 62.336 141.298 62.1463 141.26 61.9567C141.143 61.3804 141.017 60.8069 140.884 60.2354L146.312 53.9217C146.636 55.0521 146.799 55.6155 146.799 55.6155C146.774 55.6224 146.75 55.6295 146.726 55.6368L146.8 55.6163C147.014 56.3858 147.214 57.1597 147.402 57.9352L147.44 58.0904C147.638 58.9185 147.822 59.7499 147.992 60.5837C146.905 60.8342 146.334 60.9235 146.31 60.9272C146.326 60.9248 146.829 60.8472 147.791 60.6305C147.857 60.6159 147.924 60.6006 147.993 60.5846C148.312 62.1479 148.582 63.7219 148.801 65.3028C148.815 65.4082 148.83 65.5136 148.844 65.6191C149.057 67.2015 149.218 68.7903 149.332 70.3824C149.339 70.4886 149.347 70.5947 149.354 70.7009C149.411 71.5493 149.454 72.3999 149.483 73.2504L149.481 73.2504C149.506 74.0997 149.523 74.9503 149.523 75.8008V75.836C149.523 76.8006 149.505 77.7665 149.467 78.7312C149.431 79.6955 149.376 80.6585 149.304 81.6218C149.157 83.5478 148.937 85.4673 148.646 87.3778C148.354 89.2872 147.99 91.1854 147.553 93.0673C147.333 94.0079 147.096 94.9446 146.841 95.8775C146.585 96.8092 146.311 97.7352 146.019 98.6571L145.47 100.334L140.322 93.6601C140.513 92.9475 140.691 92.2318 140.858 91.5131C141.231 89.9093 141.546 88.2915 141.803 86.665C141.82 86.5565 141.837 86.4481 141.853 86.3395C142.118 84.6035 142.318 82.8563 142.452 81.1039C142.519 80.2281 142.569 79.3497 142.603 78.4718C142.857 78.4752 143.084 78.4803 143.282 78.4862C143.083 78.4802 142.857 78.4748 142.602 78.471C142.636 77.593 142.654 76.7141 142.654 75.8351L142.655 75.8033C143.8 75.8022 144.372 75.8024 144.372 75.8024C144.372 75.8024 143.799 75.801 142.654 75.802C142.654 75.0262 142.638 74.2527 142.613 73.478C143.67 73.4669 144.239 73.4276 144.32 73.4217C144.231 73.4273 143.662 73.4606 142.615 73.4763C142.588 72.7031 142.548 71.929 142.498 71.1568C142.393 69.6117 142.239 68.0699 142.034 66.5347C141.853 65.1916 141.633 63.8548 141.373 62.5258Z" fill="url(#paint17_linear_324_2543)"/>
<path d="M257.492 110.5L243.543 86.74C250.832 83.41 255.695 76.21 255.695 68.38C255.695 62.62 253.625 57.67 249.574 53.62C245.523 49.57 240.574 47.5 234.723 47.5H209.523V59.11H234.723C239.402 59.11 243.273 63.25 243.273 68.38C243.273 73.51 239.402 77.74 234.723 77.74H224.473V77.75H209.523V110.5H221.945V88.63H231.395L244.082 110.5H257.492Z" fill="white"/>
<path d="M524.543 86.74C531.832 83.41 536.695 76.21 536.695 68.38C536.695 62.62 534.625 57.67 530.574 53.62C526.523 49.57 521.574 47.5 515.723 47.5H490.523V59.11H515.723C520.402 59.11 524.273 63.25 524.273 68.38C524.273 73.51 520.402 77.74 515.723 77.74H505.473V77.75H490.523V110.5H502.945V88.63H512.395L525.082 110.5H538.492L524.543 86.74Z" fill="white"/>
<path d="M287.914 84.49V84.5H275.492V72.79H311.762V84.49H287.914Z" fill="white"/>
<path d="M275.492 59.38V47.5H314.012V59.38H275.492Z" fill="white"/>
<path d="M288.562 98.62V98.65H275.492V110.5H314.461V98.62H288.562Z" fill="white"/>
<path d="M392.039 110.5H378.539L376.047 103.012L362.387 61.5H361.895L345.773 110.5H332.461L354.512 47.5H369.902L392.039 110.5Z" fill="white"/>
<path d="M602.602 110.5H616.102L593.965 47.5H578.574L556.523 110.5H569.836L585.957 61.5H586.449L600.109 103.012L602.602 110.5Z" fill="white"/>
<path d="M460.125 88.5714C457.898 95.9821 451.492 100.446 441.977 100.446C435.57 100.446 430.41 98.5714 426.496 94.7321C422.668 90.8928 420.711 85.9821 420.711 80.0893C420.711 74.1071 422.578 69.1964 426.406 65.3571C430.23 61.4286 435.125 59.4643 441.086 59.4643C448.469 59.4643 454.875 63.0357 457.812 68.125L468.309 62.0536C462.969 53.2143 452.828 47.5 441.176 47.5C431.922 47.5 424.18 50.625 417.863 56.9643C411.637 63.3036 408.523 70.9821 408.523 80.0893C408.523 89.1071 411.637 96.7857 417.953 103.125C424.27 109.375 432.277 112.5 441.887 112.5C450.871 112.5 458.254 109.732 463.949 104.196C469.641 98.6607 472.492 91.4286 472.492 82.5V77.6786H441.266V88.5714H460.125Z" fill="white"/>
<path fill-rule="evenodd" clip-rule="evenodd" d="M658.012 47.5H634.523V110.5H646.941V89.8H658.012C664.043 89.8 669.172 87.73 673.312 83.68C677.453 79.63 679.523 74.59 679.523 68.65C679.523 62.71 677.453 57.67 673.312 53.62C669.172 49.57 664.043 47.5 658.012 47.5ZM658.012 78.19H646.941V59.11H658.012C663.32 59.11 667.191 63.16 667.191 68.65C667.191 74.05 663.32 78.19 658.012 78.19Z" fill="white"/>
<path d="M733.344 72.52V47.5H745.672V110.5H733.344V84.4H709.941V110.5H697.523V47.5H709.941V72.52H733.344Z" fill="white"/>
<defs>
<linearGradient id="paint0_linear_324_2543" x1="126.28" y1="19.9112" x2="1.12996" y2="172.039" gradientUnits="userSpaceOnUse">
<stop stop-color="#105EFF"/>
<stop offset="0.413357" stop-color="#009BFF"/>
<stop offset="0.735652" stop-color="#105EFF"/>
<stop offset="1" stop-color="#090E43"/>
</linearGradient>
<linearGradient id="paint1_linear_324_2543" x1="126.28" y1="19.9112" x2="1.12996" y2="172.039" gradientUnits="userSpaceOnUse">
<stop stop-color="#105EFF"/>
<stop offset="0.413357" stop-color="#009BFF"/>
<stop offset="0.735652" stop-color="#105EFF"/>
<stop offset="1" stop-color="#090E43"/>
</linearGradient>
<linearGradient id="paint2_linear_324_2543" x1="126.28" y1="19.9112" x2="1.12996" y2="172.039" gradientUnits="userSpaceOnUse">
<stop stop-color="#105EFF"/>
<stop offset="0.413357" stop-color="#009BFF"/>
<stop offset="0.735652" stop-color="#105EFF"/>
<stop offset="1" stop-color="#090E43"/>
</linearGradient>
<linearGradient id="paint3_linear_324_2543" x1="126.28" y1="19.9112" x2="1.12996" y2="172.039" gradientUnits="userSpaceOnUse">
<stop stop-color="#105EFF"/>
<stop offset="0.413357" stop-color="#009BFF"/>
<stop offset="0.735652" stop-color="#105EFF"/>
<stop offset="1" stop-color="#090E43"/>
</linearGradient>
<linearGradient id="paint4_linear_324_2543" x1="126.28" y1="19.9112" x2="1.12996" y2="172.039" gradientUnits="userSpaceOnUse">
<stop stop-color="#105EFF"/>
<stop offset="0.413357" stop-color="#009BFF"/>
<stop offset="0.735652" stop-color="#105EFF"/>
<stop offset="1" stop-color="#090E43"/>
</linearGradient>
<linearGradient id="paint5_linear_324_2543" x1="126.28" y1="19.9112" x2="1.12996" y2="172.039" gradientUnits="userSpaceOnUse">
<stop stop-color="#105EFF"/>
<stop offset="0.413357" stop-color="#009BFF"/>
<stop offset="0.735652" stop-color="#105EFF"/>
<stop offset="1" stop-color="#090E43"/>
</linearGradient>
<linearGradient id="paint6_linear_324_2543" x1="126.28" y1="19.9112" x2="1.12996" y2="172.039" gradientUnits="userSpaceOnUse">
<stop stop-color="#105EFF"/>
<stop offset="0.413357" stop-color="#009BFF"/>
<stop offset="0.735652" stop-color="#105EFF"/>
<stop offset="1" stop-color="#090E43"/>
</linearGradient>
<linearGradient id="paint7_linear_324_2543" x1="126.28" y1="19.9112" x2="1.12996" y2="172.039" gradientUnits="userSpaceOnUse">
<stop stop-color="#105EFF"/>
<stop offset="0.413357" stop-color="#009BFF"/>
<stop offset="0.735652" stop-color="#105EFF"/>
<stop offset="1" stop-color="#090E43"/>
</linearGradient>
<linearGradient id="paint8_linear_324_2543" x1="126.28" y1="19.9112" x2="1.12996" y2="172.039" gradientUnits="userSpaceOnUse">
<stop stop-color="#105EFF"/>
<stop offset="0.413357" stop-color="#009BFF"/>
<stop offset="0.735652" stop-color="#105EFF"/>
<stop offset="1" stop-color="#090E43"/>
</linearGradient>
<linearGradient id="paint9_linear_324_2543" x1="126.28" y1="19.9112" x2="1.12996" y2="172.039" gradientUnits="userSpaceOnUse">
<stop stop-color="#105EFF"/>
<stop offset="0.413357" stop-color="#009BFF"/>
<stop offset="0.735652" stop-color="#105EFF"/>
<stop offset="1" stop-color="#090E43"/>
</linearGradient>
<linearGradient id="paint10_linear_324_2543" x1="126.28" y1="19.9112" x2="1.12996" y2="172.039" gradientUnits="userSpaceOnUse">
<stop stop-color="#105EFF"/>
<stop offset="0.413357" stop-color="#009BFF"/>
<stop offset="0.735652" stop-color="#105EFF"/>
<stop offset="1" stop-color="#090E43"/>
</linearGradient>
<linearGradient id="paint11_linear_324_2543" x1="126.28" y1="19.9112" x2="1.12996" y2="172.039" gradientUnits="userSpaceOnUse">
<stop stop-color="#105EFF"/>
<stop offset="0.413357" stop-color="#009BFF"/>
<stop offset="0.735652" stop-color="#105EFF"/>
<stop offset="1" stop-color="#090E43"/>
</linearGradient>
<linearGradient id="paint12_linear_324_2543" x1="126.28" y1="19.9112" x2="1.12996" y2="172.039" gradientUnits="userSpaceOnUse">
<stop stop-color="#105EFF"/>
<stop offset="0.413357" stop-color="#009BFF"/>
<stop offset="0.735652" stop-color="#105EFF"/>
<stop offset="1" stop-color="#090E43"/>
</linearGradient>
<linearGradient id="paint13_linear_324_2543" x1="126.28" y1="19.9112" x2="1.12996" y2="172.039" gradientUnits="userSpaceOnUse">
<stop stop-color="#105EFF"/>
<stop offset="0.413357" stop-color="#009BFF"/>
<stop offset="0.735652" stop-color="#105EFF"/>
<stop offset="1" stop-color="#090E43"/>
</linearGradient>
<linearGradient id="paint14_linear_324_2543" x1="126.28" y1="19.9112" x2="1.12996" y2="172.039" gradientUnits="userSpaceOnUse">
<stop stop-color="#105EFF"/>
<stop offset="0.413357" stop-color="#009BFF"/>
<stop offset="0.735652" stop-color="#105EFF"/>
<stop offset="1" stop-color="#090E43"/>
</linearGradient>
<linearGradient id="paint15_linear_324_2543" x1="126.28" y1="19.9112" x2="1.12996" y2="172.039" gradientUnits="userSpaceOnUse">
<stop stop-color="#105EFF"/>
<stop offset="0.413357" stop-color="#009BFF"/>
<stop offset="0.735652" stop-color="#105EFF"/>
<stop offset="1" stop-color="#090E43"/>
</linearGradient>
<linearGradient id="paint16_linear_324_2543" x1="126.28" y1="19.9112" x2="1.12996" y2="172.039" gradientUnits="userSpaceOnUse">
<stop stop-color="#105EFF"/>
<stop offset="0.413357" stop-color="#009BFF"/>
<stop offset="0.735652" stop-color="#105EFF"/>
<stop offset="1" stop-color="#090E43"/>
</linearGradient>
<linearGradient id="paint17_linear_324_2543" x1="126.28" y1="19.9112" x2="1.12996" y2="172.039" gradientUnits="userSpaceOnUse">
<stop stop-color="#105EFF"/>
<stop offset="0.413357" stop-color="#009BFF"/>
<stop offset="0.735652" stop-color="#105EFF"/>
<stop offset="1" stop-color="#090E43"/>
</linearGradient>
</defs>
</svg>
