<svg fill="#7CA0AB" xmlns="http://www.w3.org/2000/svg"  viewBox="0 0 50 50" width="50px" height="50px"><path d="M 26 2 C 25.503906 2 25.042969 2.03125 24.609375 2.070313 L 24.601563 2.070313 C 24.59375 2.074219 24.585938 2.074219 24.578125 2.074219 C 24.578125 2.074219 24.574219 2.074219 24.574219 2.074219 C 22.273438 2.292969 20.523438 2.972656 18.859375 3.339844 C 17.199219 3.707031 15.625 3.832031 13.320313 3.054688 L 11.5 2.4375 L 12.042969 4.28125 C 12.347656 5.332031 12.949219 6.144531 13.640625 6.855469 C 12.390625 7.507813 11.195313 8 10 8 L 8.492188 8 L 9.078125 9.390625 C 9.664063 10.777344 11.007813 11.988281 12.796875 13.050781 L 13.308594 17.699219 C 12.566406 18.246094 12 19.015625 12 20 C 12 21.304688 12.953125 22.230469 14.128906 22.636719 L 14.507813 24.152344 C 14.984375 26.0625 16.339844 27.757813 18 29.132813 L 18 32.214844 C 15.414063 32.882813 12.050781 34.304688 9.128906 36.058594 C 7.515625 37.027344 6.046875 38.09375 4.933594 39.226563 C 3.820313 40.359375 3 41.59375 3 43 L 3 48 L 19.730469 48 C 19.914063 48.054688 20.109375 48.054688 20.292969 48 L 47 48 L 47.003906 43 C 47.003906 41.582031 46.183594 40.335938 45.070313 39.191406 C 43.957031 38.050781 42.488281 36.984375 40.871094 36.015625 C 37.945313 34.265625 34.585938 32.859375 32 32.207031 L 32 29.132813 C 33.660156 27.757813 35.015625 26.0625 35.492188 24.152344 L 35.871094 22.636719 C 37.046875 22.230469 38 21.304688 38 20 C 38 19.007813 37.425781 18.234375 36.675781 17.6875 L 37.050781 12.839844 C 38.273438 11.679688 39 10.226563 39 8.625 C 39 6.445313 37.65625 4.609375 35.429688 3.546875 C 33.203125 2.488281 30.082031 2 26 2 Z M 16.25 13.601563 C 18.628906 14.445313 21.578125 15 25 15 C 28.957031 15 31.910156 14.519531 34 13.671875 L 34 19.332031 L 34.871094 18.902344 L 35.320313 19.050781 C 35.710938 19.183594 36 19.550781 36 20 C 36 20.566406 35.566406 21 35 21 L 34.21875 21 L 33.550781 23.667969 C 33.191406 25.113281 31.988281 26.722656 30.394531 27.9375 L 30 28.234375 L 30 32.453125 C 29.898438 32.523438 29.785156 32.601563 29.648438 32.691406 C 29.484375 32.796875 29.316406 32.902344 29.113281 33.019531 C 29.046875 33.058594 29.015625 33.082031 28.9375 33.125 C 28.726563 33.242188 28.5 33.355469 28.273438 33.457031 C 28.046875 33.5625 27.816406 33.65625 27.597656 33.734375 C 27.160156 33.898438 26.761719 34 26.5 34 L 23.5 34 C 23.230469 34 22.828125 33.898438 22.390625 33.738281 C 22.167969 33.660156 21.941406 33.5625 21.71875 33.457031 C 21.71875 33.457031 21.714844 33.457031 21.714844 33.457031 C 21.488281 33.355469 21.265625 33.242188 21.058594 33.125 C 20.75 32.957031 20.523438 32.804688 20.292969 32.65625 C 20.1875 32.582031 20.085938 32.511719 20 32.453125 L 20 28.234375 L 19.605469 27.9375 C 18.011719 26.722656 16.808594 25.113281 16.449219 23.667969 L 15.78125 21 L 15 21 C 14.433594 21 14 20.566406 14 20 C 14 19.550781 14.289063 19.183594 14.675781 19.050781 L 15.28125 18.847656 L 16.25 19.332031 Z M 19 16 C 18.640625 15.996094 18.304688 16.183594 18.121094 16.496094 C 17.941406 16.808594 17.941406 17.191406 18.121094 17.503906 C 18.304688 17.816406 18.640625 18.003906 19 18 L 22 18 C 22.359375 18.003906 22.695313 17.816406 22.878906 17.503906 C 23.058594 17.191406 23.058594 16.808594 22.878906 16.496094 C 22.695313 16.183594 22.359375 15.996094 22 16 Z M 28 16 C 27.640625 15.996094 27.304688 16.183594 27.121094 16.496094 C 26.941406 16.808594 26.941406 17.191406 27.121094 17.503906 C 27.304688 17.816406 27.640625 18.003906 28 18 L 31 18 C 31.359375 18.003906 31.695313 17.816406 31.878906 17.503906 C 32.058594 17.191406 32.058594 16.808594 31.878906 16.496094 C 31.695313 16.183594 31.359375 15.996094 31 16 Z M 21.5 19 C 20.671875 19 20 19.449219 20 20 L 23 20 C 23 19.449219 22.328125 19 21.5 19 Z M 28.5 19 C 27.671875 19 27 19.449219 27 20 L 30 20 C 30 19.449219 29.328125 19 28.5 19 Z M 25 25 C 23.503906 25 23 25.53125 23 25.53125 C 23 25.964844 23.242188 26.253906 23.554688 26.453125 C 23.523438 26.597656 23.5 26.757813 23.5 26.957031 C 23.5 26.957031 24.101563 27.511719 24.992188 27.511719 C 25.882813 27.511719 26.5 26.957031 26.5 26.957031 C 26.5 26.757813 26.476563 26.597656 26.445313 26.453125 C 26.757813 26.253906 27 25.964844 27 25.53125 C 27 25.53125 26.496094 25 25 25 Z M 31.171875 34.09375 C 31.390625 34.144531 31.664063 34.238281 31.902344 34.304688 L 29.203125 46 L 26.890625 46 L 26 38 L 27.394531 35.90625 C 27.710938 35.839844 28.019531 35.75 28.316406 35.640625 C 28.601563 35.53125 28.878906 35.40625 29.144531 35.277344 C 29.410156 35.144531 29.664063 35.007813 29.90625 34.875 C 30.375 34.617188 30.632813 34.449219 30.84375 34.300781 C 30.964844 34.222656 31.074219 34.160156 31.171875 34.09375 Z M 18.832031 34.101563 C 18.945313 34.179688 19.097656 34.265625 19.25 34.359375 C 19.414063 34.472656 19.648438 34.617188 19.945313 34.785156 C 20 34.816406 20.027344 34.84375 20.082031 34.875 C 20.082031 34.875 20.085938 34.875 20.085938 34.875 C 20.324219 35.007813 20.578125 35.144531 20.84375 35.277344 C 21.109375 35.40625 21.386719 35.53125 21.671875 35.636719 C 21.671875 35.636719 21.675781 35.636719 21.675781 35.636719 C 21.976563 35.75 22.285156 35.839844 22.605469 35.90625 L 24 38 L 23.109375 46 L 20.796875 46 L 18.097656 34.3125 C 18.339844 34.246094 18.613281 34.152344 18.832031 34.101563 Z"/></svg>
