<?xml version="1.0"?><svg fill="#000" xmlns="http://www.w3.org/2000/svg" viewBox="0 0 50 50" width="50px" height="50px">    <path d="M 5 4 C 4.448 4 4 4.448 4 5 L 4 31 C 4 32.105 4.895 33 6 33 L 44 33 C 45.105 33 46 32.105 46 31 L 46 5 C 46 4.448 45.552 4 45 4 L 5 4 z M 10 9 L 40 9 C 40.552 9 41 9.448 41 10 L 41 27 C 41 27.552 40.552 28 40 28 L 10 28 C 9.448 28 9 27.552 9 27 L 9 10 C 9 9.448 9.448 9 10 9 z M 6 35 C 4.895 35 4 35.895 4 37 L 4 45 C 4 45.552 4.448 46 5 46 L 45 46 C 45.552 46 46 45.552 46 45 L 46 37 C 46 35.895 45.105 35 44 35 L 6 35 z M 38 38 C 39.104 38 40 38.895 40 40 C 40 41.105 39.104 42 38 42 C 36.896 42 36 41.105 36 40 C 36 38.895 36.896 38 38 38 z M 10 39 L 26 39 L 26 41 L 10 41 L 10 39 z"/></svg>
