<svg fill="#000" xmlns="http://www.w3.org/2000/svg" viewBox="0 0 50 50" width="50px" height="50px">
  <path d="M 24.5 9 C 22.511719 9 20.640625 9.527344 19.011719 10.453125 C 18.800781 10.574219 18.601563 10.710938 18.402344 10.84375 C 18.402344 10.84375 18.398438 10.84375 18.398438 10.84375 C 18.332031 10.820313 18.269531 10.789063 18.203125 10.765625 C 18.152344 10.746094 18.105469 10.730469 18.054688 10.710938 C 17.867188 10.640625 17.675781 10.578125 17.488281 10.519531 C 17.148438 10.417969 16.820313 10.335938 16.503906 10.269531 C 16.355469 10.242188 16.214844 10.214844 16.074219 10.1875 C 15.9375 10.164063 15.824219 10.152344 15.699219 10.136719 C 15.402344 10.09375 15.121094 10.058594 14.851563 10.039063 C 14.480469 10.011719 14.171875 10 14 10 C 13.683594 10 13.355469 10.015625 13.023438 10.039063 C 12.828125 10.054688 12.628906 10.078125 12.433594 10.097656 C 12.3125 10.113281 12.191406 10.125 12.066406 10.144531 C 11.796875 10.183594 11.527344 10.234375 11.261719 10.289063 C 11.214844 10.296875 11.167969 10.304688 11.125 10.316406 C 10.828125 10.378906 10.535156 10.457031 10.246094 10.539063 C 10.203125 10.550781 10.160156 10.5625 10.113281 10.578125 C 9.832031 10.660156 9.554688 10.753906 9.28125 10.859375 C 9.207031 10.886719 9.136719 10.910156 9.070313 10.9375 C 8.816406 11.039063 8.566406 11.148438 8.320313 11.265625 C 8.21875 11.3125 8.121094 11.363281 8.019531 11.414063 C 7.820313 11.515625 7.625 11.621094 7.429688 11.734375 C 7.269531 11.828125 7.113281 11.925781 6.957031 12.027344 C 6.820313 12.113281 6.683594 12.203125 6.554688 12.296875 C 6.464844 12.363281 6.371094 12.414063 6.28125 12.480469 C 6.179688 12.558594 6.085938 12.648438 5.984375 12.730469 C 5.894531 12.804688 5.800781 12.878906 5.710938 12.957031 C 5.507813 13.136719 5.3125 13.324219 5.117188 13.519531 C 5.046875 13.59375 4.980469 13.664063 4.914063 13.738281 C 4.726563 13.9375 4.546875 14.148438 4.375 14.367188 C 4.292969 14.46875 4.21875 14.574219 4.140625 14.675781 C 3.996094 14.878906 3.851563 15.085938 3.71875 15.300781 C 3.632813 15.441406 3.550781 15.589844 3.46875 15.734375 C 3.355469 15.941406 3.242188 16.144531 3.140625 16.363281 C 3.050781 16.542969 2.976563 16.734375 2.898438 16.925781 C 2.820313 17.121094 2.738281 17.316406 2.667969 17.519531 C 2.589844 17.753906 2.527344 18 2.460938 18.242188 C 2.410156 18.4375 2.351563 18.625 2.304688 18.828125 C 2.242188 19.121094 2.199219 19.429688 2.15625 19.738281 C 2.132813 19.902344 2.097656 20.054688 2.082031 20.21875 C 2.03125 20.710938 2 21.222656 2 21.75 C 2 22.191406 2.019531 22.609375 2.046875 23.019531 C 2.058594 23.171875 2.074219 23.320313 2.085938 23.472656 C 2.109375 23.691406 2.132813 23.910156 2.164063 24.121094 C 2.53125 26.894531 3.570313 29.160156 5.289063 30.855469 C 5.96875 31.527344 6.699219 32.050781 7.433594 32.464844 C 7.460938 32.480469 7.488281 32.5 7.515625 32.515625 C 7.535156 32.527344 7.558594 32.535156 7.578125 32.546875 C 7.742188 32.636719 7.902344 32.707031 8.0625 32.785156 C 8.308594 32.902344 8.550781 33.015625 8.789063 33.113281 C 8.949219 33.175781 9.105469 33.234375 9.257813 33.289063 C 9.464844 33.363281 9.664063 33.425781 9.859375 33.484375 C 10.019531 33.53125 10.175781 33.578125 10.328125 33.621094 C 10.519531 33.667969 10.699219 33.707031 10.875 33.746094 C 11.007813 33.773438 11.144531 33.804688 11.269531 33.828125 C 11.304688 33.832031 11.324219 33.835938 11.359375 33.839844 C 11.804688 33.914063 12.074219 33.9375 12.355469 33.957031 C 12.691406 33.984375 12.886719 34 12.9375 34 C 12.945313 34 12.976563 34 12.984375 34 C 12.988281 34 12.988281 34 12.996094 34 C 12.996094 34 13.015625 34 13.015625 34 C 13.5 33.992188 13.910156 33.636719 13.988281 33.15625 C 14.0625 32.675781 13.78125 32.207031 13.320313 32.050781 C 13.320313 32.050781 13.316406 32.050781 13.316406 32.050781 C 13.316406 32.050781 13.292969 32.039063 13.289063 32.039063 C 13.257813 32.027344 13.179688 31.996094 13.074219 31.953125 C 13.007813 31.921875 12.898438 31.863281 12.8125 31.820313 C 12.707031 31.769531 12.609375 31.722656 12.480469 31.648438 C 12.3125 31.550781 12.113281 31.414063 11.910156 31.277344 C 11.824219 31.214844 11.742188 31.167969 11.648438 31.09375 C 11.351563 30.871094 11.035156 30.597656 10.714844 30.269531 C 10.410156 29.957031 10.105469 29.59375 9.8125 29.179688 C 9.773438 29.121094 9.730469 29.070313 9.695313 29.011719 C 9.613281 28.890625 9.535156 28.757813 9.460938 28.625 C 9.378906 28.492188 9.296875 28.359375 9.21875 28.214844 C 9.175781 28.136719 9.140625 28.046875 9.101563 27.96875 C 9 27.757813 8.898438 27.550781 8.804688 27.324219 C 8.792969 27.289063 8.78125 27.25 8.769531 27.21875 C 8.664063 26.945313 8.5625 26.660156 8.476563 26.359375 C 8.464844 26.3125 8.457031 26.265625 8.445313 26.21875 C 8.265625 25.582031 8.132813 24.878906 8.0625 24.105469 C 8.023438 23.675781 8 23.226563 8 22.75 C 8 21.359375 8.546875 20.382813 9.164063 19.726563 C 9.363281 19.515625 9.566406 19.339844 9.765625 19.1875 C 9.808594 19.160156 9.851563 19.128906 9.894531 19.097656 C 10.003906 19.023438 10.113281 18.949219 10.226563 18.882813 C 10.308594 18.832031 10.394531 18.789063 10.480469 18.746094 C 10.554688 18.703125 10.632813 18.664063 10.707031 18.628906 C 10.832031 18.570313 10.960938 18.519531 11.089844 18.46875 C 11.128906 18.457031 11.164063 18.441406 11.203125 18.425781 C 11.902344 18.183594 12.648438 18.082031 13.347656 18.125 C 13.128906 19.046875 13 20.007813 13 21 L 13 25.011719 C 13 25.011719 13 25.011719 13 25.015625 C 13 25.046875 13 25.078125 13.003906 25.109375 C 13.019531 26.671875 13.382813 27.960938 14.078125 28.921875 L 17.257813 41.25 C 17.828125 43.453125 19.824219 45 22.097656 45 L 26.902344 45 C 27.472656 45 28.023438 44.902344 28.539063 44.722656 C 28.796875 44.636719 29.046875 44.523438 29.28125 44.394531 C 29.996094 44.007813 30.613281 43.449219 31.066406 42.765625 C 31.371094 42.3125 31.601563 41.800781 31.746094 41.25 L 34.921875 28.941406 C 35.621094 27.976563 35.984375 26.675781 36 25.089844 C 36 25.085938 35.996094 25.085938 36 25.082031 C 36 25.058594 36 25.035156 36 25.011719 L 36 21 C 36 20.589844 35.980469 20.179688 35.941406 19.78125 C 35.886719 19.214844 35.78125 18.664063 35.652344 18.125 C 36.34375 18.082031 37.085938 18.183594 37.78125 18.421875 C 37.832031 18.441406 37.882813 18.460938 37.933594 18.480469 C 38.050781 18.523438 38.167969 18.570313 38.285156 18.625 C 38.363281 18.660156 38.4375 18.699219 38.515625 18.738281 C 38.605469 18.785156 38.691406 18.832031 38.777344 18.886719 C 38.898438 18.957031 39.019531 19.039063 39.136719 19.121094 C 39.164063 19.140625 39.195313 19.160156 39.226563 19.183594 C 39.421875 19.332031 39.628906 19.507813 39.828125 19.71875 C 39.839844 19.730469 39.851563 19.746094 39.863281 19.757813 C 40.46875 20.414063 41 21.378906 41 22.75 C 41 23.050781 40.976563 23.320313 40.960938 23.601563 C 40.953125 23.761719 40.953125 23.929688 40.9375 24.082031 C 40.902344 24.496094 40.847656 24.894531 40.78125 25.265625 C 40.777344 25.269531 40.777344 25.277344 40.777344 25.28125 C 40.714844 25.609375 40.640625 25.917969 40.558594 26.21875 C 40.542969 26.265625 40.535156 26.3125 40.523438 26.355469 C 40.34375 26.980469 40.113281 27.539063 39.863281 28.042969 C 39.839844 28.09375 39.816406 28.148438 39.792969 28.195313 C 39.707031 28.355469 39.617188 28.5 39.527344 28.648438 C 39.453125 28.769531 39.382813 28.898438 39.308594 29.011719 C 39.261719 29.074219 39.214844 29.136719 39.171875 29.199219 C 39.046875 29.378906 38.917969 29.554688 38.785156 29.714844 C 38.785156 29.714844 38.785156 29.714844 38.785156 29.71875 C 38.621094 29.917969 38.453125 30.097656 38.285156 30.269531 C 37.960938 30.601563 37.640625 30.875 37.34375 31.105469 C 37.273438 31.15625 37.214844 31.1875 37.144531 31.234375 C 36.921875 31.398438 36.699219 31.546875 36.511719 31.652344 C 36.410156 31.710938 36.332031 31.75 36.246094 31.792969 C 36.128906 31.851563 36 31.921875 35.921875 31.953125 C 35.808594 32.003906 35.707031 32.042969 35.683594 32.050781 C 35.460938 32.125 35.269531 32.277344 35.144531 32.476563 C 35.144531 32.476563 35.144531 32.480469 35.144531 32.480469 C 34.957031 32.789063 34.949219 33.171875 35.125 33.484375 C 35.125 33.484375 35.128906 33.488281 35.128906 33.488281 C 35.242188 33.6875 35.417969 33.84375 35.628906 33.925781 C 35.636719 33.929688 35.640625 33.933594 35.648438 33.9375 C 35.757813 33.976563 35.871094 34 35.984375 34 L 36.015625 34 C 36.023438 34 36.054688 34 36.0625 34 C 36.113281 34 36.308594 33.984375 36.644531 33.957031 C 36.925781 33.9375 37.195313 33.914063 37.640625 33.839844 C 37.675781 33.835938 37.695313 33.832031 37.730469 33.828125 C 37.855469 33.804688 37.992188 33.773438 38.125 33.746094 C 38.300781 33.707031 38.480469 33.667969 38.671875 33.621094 C 38.824219 33.578125 38.980469 33.53125 39.140625 33.484375 C 39.335938 33.425781 39.535156 33.363281 39.738281 33.289063 C 39.894531 33.234375 40.050781 33.175781 40.207031 33.113281 C 40.449219 33.015625 40.691406 32.902344 40.9375 32.785156 C 41.097656 32.707031 41.257813 32.636719 41.421875 32.546875 C 41.441406 32.535156 41.464844 32.527344 41.484375 32.515625 C 41.511719 32.5 41.539063 32.480469 41.566406 32.464844 C 42.300781 32.046875 43.03125 31.527344 43.714844 30.855469 C 45.429688 29.160156 46.46875 26.894531 46.839844 24.121094 C 46.867188 23.910156 46.890625 23.691406 46.910156 23.472656 C 46.925781 23.320313 46.941406 23.171875 46.953125 23.019531 C 46.980469 22.609375 47 22.191406 47 21.75 C 47 21.222656 46.96875 20.710938 46.917969 20.21875 C 46.902344 20.054688 46.867188 19.902344 46.84375 19.738281 C 46.800781 19.429688 46.757813 19.121094 46.691406 18.828125 C 46.648438 18.625 46.589844 18.4375 46.539063 18.242188 C 46.472656 18 46.410156 17.753906 46.332031 17.519531 C 46.261719 17.316406 46.179688 17.121094 46.097656 16.925781 C 46.023438 16.734375 45.949219 16.542969 45.859375 16.363281 C 45.757813 16.144531 45.644531 15.941406 45.53125 15.734375 C 45.449219 15.589844 45.367188 15.441406 45.28125 15.300781 C 45.148438 15.085938 45.003906 14.878906 44.859375 14.675781 C 44.78125 14.574219 44.707031 14.46875 44.625 14.367188 C 44.453125 14.148438 44.273438 13.9375 44.089844 13.738281 C 44.019531 13.664063 43.953125 13.59375 43.882813 13.519531 C 43.6875 13.324219 43.492188 13.136719 43.285156 12.957031 C 43.199219 12.878906 43.105469 12.804688 43.015625 12.730469 C 42.914063 12.648438 42.820313 12.558594 42.71875 12.480469 C 42.628906 12.414063 42.535156 12.363281 42.449219 12.296875 C 42.3125 12.203125 42.175781 12.109375 42.039063 12.019531 C 41.886719 11.925781 41.734375 11.828125 41.582031 11.738281 C 41.378906 11.621094 41.175781 11.511719 40.96875 11.40625 C 40.875 11.359375 40.78125 11.3125 40.6875 11.265625 C 40.4375 11.148438 40.1875 11.039063 39.933594 10.9375 C 39.859375 10.910156 39.789063 10.882813 39.71875 10.859375 C 39.449219 10.753906 39.175781 10.664063 38.898438 10.578125 C 38.847656 10.5625 38.792969 10.550781 38.742188 10.535156 C 38.457031 10.453125 38.167969 10.378906 37.875 10.316406 C 37.832031 10.304688 37.785156 10.296875 37.738281 10.289063 C 37.472656 10.234375 37.203125 10.183594 36.933594 10.144531 C 36.808594 10.125 36.6875 10.113281 36.566406 10.097656 C 36.371094 10.078125 36.171875 10.054688 35.976563 10.039063 C 35.644531 10.015625 35.316406 10 35 10 C 34.828125 10 34.519531 10.011719 34.144531 10.039063 C 33.878906 10.058594 33.601563 10.09375 33.3125 10.136719 C 33.175781 10.152344 33.0625 10.164063 32.921875 10.1875 C 32.78125 10.214844 32.640625 10.242188 32.5 10.269531 C 32.179688 10.335938 31.851563 10.417969 31.511719 10.519531 C 31.328125 10.578125 31.148438 10.636719 30.96875 10.703125 C 30.90625 10.726563 30.84375 10.746094 30.78125 10.769531 C 30.722656 10.792969 30.664063 10.820313 30.601563 10.84375 C 30.398438 10.710938 30.199219 10.574219 29.988281 10.453125 C 28.359375 9.527344 26.488281 9 24.5 9 Z M 24.5 11 C 26.480469 11 28.320313 11.640625 29.84375 12.730469 C 29.863281 12.746094 29.882813 12.761719 29.902344 12.777344 C 29.902344 12.78125 29.90625 12.785156 29.910156 12.785156 C 29.910156 12.789063 29.910156 12.789063 29.910156 12.785156 C 30.320313 13.085938 30.703125 13.417969 31.058594 13.777344 C 31.761719 14.484375 32.359375 15.308594 32.832031 16.21875 C 32.832031 16.21875 32.835938 16.21875 32.835938 16.222656 C 32.882813 16.308594 32.917969 16.402344 32.960938 16.492188 C 33.121094 16.824219 33.265625 17.167969 33.390625 17.519531 C 32.839844 17.207031 32.207031 17.011719 31.5 17.011719 L 31 17.011719 C 30.867188 17.007813 30.734375 17.035156 30.609375 17.082031 C 30.578125 17.097656 30.546875 17.109375 30.519531 17.125 C 30.203125 17.292969 30 17.617188 29.988281 17.976563 C 29.972656 18.332031 30.15625 18.671875 30.457031 18.859375 C 30.488281 18.878906 30.515625 18.894531 30.546875 18.90625 C 30.664063 18.96875 30.796875 19 30.929688 19.007813 C 30.953125 19.007813 30.976563 19.011719 31 19.011719 L 31.5 19.011719 C 32.089844 19.011719 32.546875 19.234375 32.925781 19.640625 C 33.054688 19.777344 33.175781 19.933594 33.289063 20.109375 C 33.746094 20.808594 34 21.785156 34 22.488281 L 34 25.011719 C 34 26.707031 33.578125 27.613281 32.957031 28.164063 C 32.492188 28.578125 31.828125 28.839844 30.949219 28.949219 C 30.65625 28.984375 30.339844 29 30 29 L 29.15625 29 C 29.097656 28.992188 29.042969 28.984375 28.984375 28.984375 C 28.726563 28.992188 28.476563 29.097656 28.296875 29.28125 C 28.289063 29.285156 28.28125 29.289063 28.277344 29.296875 C 28.269531 29.300781 28.265625 29.304688 28.265625 29.308594 C 28.046875 29.535156 27.949219 29.847656 28 30.15625 L 28 33.5 C 28 33.78125 27.78125 34 27.5 34 C 27.21875 34 27 33.78125 27 33.5 L 27 33 C 27.003906 32.460938 26.574219 32.015625 26.035156 31.996094 C 25.496094 31.976563 25.039063 32.390625 25 32.929688 C 25 32.953125 25 32.976563 25 33 L 25 33.5 C 25 33.785156 24.785156 34 24.5 34 C 24.214844 34 24 33.785156 24 33.5 L 24 33 C 24 32.964844 24 32.933594 23.996094 32.902344 C 23.980469 32.699219 23.902344 32.507813 23.773438 32.355469 C 23.773438 32.351563 23.773438 32.351563 23.773438 32.351563 C 23.6875 32.25 23.582031 32.164063 23.464844 32.101563 C 23.4375 32.085938 23.40625 32.070313 23.375 32.058594 C 23.21875 31.996094 23.050781 31.972656 22.886719 31.992188 C 22.851563 31.996094 22.816406 32.003906 22.785156 32.011719 C 22.722656 32.023438 22.65625 32.042969 22.597656 32.070313 C 22.597656 32.070313 22.597656 32.070313 22.59375 32.074219 C 22.546875 32.09375 22.5 32.121094 22.453125 32.148438 C 22.445313 32.15625 22.433594 32.164063 22.421875 32.171875 C 22.410156 32.179688 22.398438 32.1875 22.390625 32.199219 C 22.269531 32.289063 22.167969 32.410156 22.101563 32.546875 C 22.085938 32.574219 22.074219 32.605469 22.0625 32.636719 C 22.0625 32.636719 22.0625 32.636719 22.0625 32.640625 C 22.050781 32.667969 22.042969 32.699219 22.03125 32.734375 C 22.023438 32.765625 22.015625 32.796875 22.011719 32.828125 C 22.011719 32.832031 22.011719 32.832031 22.011719 32.832031 C 22.007813 32.863281 22.003906 32.898438 22 32.929688 C 22 32.929688 22 32.929688 22 32.933594 C 22 32.953125 22 32.976563 22 33 L 22 33.5 C 22 33.78125 21.78125 34 21.5 34 C 21.21875 34 21 33.78125 21 33.5 L 21 30.167969 C 21.054688 29.839844 20.945313 29.507813 20.707031 29.28125 C 20.707031 29.277344 20.707031 29.277344 20.703125 29.277344 C 20.703125 29.273438 20.703125 29.273438 20.699219 29.269531 C 20.695313 29.269531 20.695313 29.265625 20.691406 29.265625 C 20.5 29.082031 20.246094 28.980469 19.984375 28.984375 C 19.9375 28.988281 19.886719 28.992188 19.839844 29 L 19 29 C 17.648438 29 16.671875 28.710938 16.046875 28.15625 C 15.421875 27.597656 15 26.691406 15 25.011719 L 15 22.488281 C 15 22.3125 15.015625 22.121094 15.046875 21.917969 C 15.140625 21.3125 15.367188 20.632813 15.710938 20.109375 C 16.167969 19.410156 16.710938 19.011719 17.5 19.011719 C 17.773438 19.011719 18.035156 19 18.035156 19 C 18.585938 18.980469 19.019531 18.515625 19 17.964844 C 18.980469 17.414063 18.515625 16.980469 17.964844 17 C 17.964844 17 17.726563 17.011719 17.5 17.011719 C 16.792969 17.011719 16.160156 17.210938 15.609375 17.523438 C 15.679688 17.320313 15.753906 17.117188 15.835938 16.921875 C 15.835938 16.921875 15.835938 16.917969 15.839844 16.917969 C 16.445313 15.488281 17.363281 14.238281 18.496094 13.261719 C 18.6875 13.097656 18.882813 12.9375 19.089844 12.789063 C 19.089844 12.789063 19.089844 12.785156 19.089844 12.785156 C 19.128906 12.761719 19.164063 12.730469 19.195313 12.699219 C 20.710938 11.625 22.539063 11 24.5 11 Z M 18.007813 20 C 17.957031 20.003906 17.90625 20.007813 17.859375 20.015625 C 17.851563 20.015625 17.84375 20.015625 17.839844 20.015625 C 17.761719 20.027344 17.6875 20.050781 17.621094 20.078125 C 17.613281 20.082031 17.605469 20.085938 17.597656 20.089844 C 17.535156 20.117188 17.480469 20.152344 17.425781 20.191406 C 17.414063 20.199219 17.402344 20.207031 17.390625 20.21875 C 17.328125 20.265625 17.273438 20.320313 17.226563 20.382813 C 17.050781 20.613281 16.886719 20.871094 16.742188 21.144531 C 16.460938 21.683594 16.246094 22.296875 16.125 22.96875 C 16.066406 23.292969 16.035156 23.621094 16.023438 23.949219 C 16.023438 23.949219 16.023438 23.949219 16.023438 23.953125 C 16.011719 24.378906 16.09375 24.859375 16.277344 25.347656 C 16.28125 25.363281 16.285156 25.375 16.292969 25.390625 C 16.367188 25.59375 16.46875 25.796875 16.585938 26 C 16.644531 26.109375 16.707031 26.210938 16.777344 26.3125 C 16.792969 26.339844 16.804688 26.367188 16.824219 26.394531 C 16.832031 26.402344 16.84375 26.414063 16.847656 26.421875 C 16.949219 26.558594 17.058594 26.695313 17.183594 26.820313 C 17.226563 26.863281 17.277344 26.894531 17.324219 26.9375 C 17.410156 27.015625 17.5 27.09375 17.59375 27.167969 C 17.726563 27.265625 17.859375 27.355469 18 27.4375 C 18.066406 27.472656 18.132813 27.507813 18.203125 27.542969 C 18.355469 27.617188 18.515625 27.683594 18.675781 27.734375 C 18.796875 27.777344 18.921875 27.816406 19.046875 27.84375 C 19.140625 27.867188 19.234375 27.886719 19.332031 27.902344 C 19.546875 27.933594 19.769531 27.957031 20 27.957031 C 22.308594 27.957031 23.980469 26.285156 23.980469 23.980469 C 23.980469 23.847656 23.953125 23.71875 23.902344 23.597656 C 23.855469 23.484375 23.785156 23.378906 23.695313 23.292969 C 23.695313 23.289063 23.695313 23.289063 23.691406 23.289063 C 23.691406 23.289063 23.691406 23.289063 23.691406 23.285156 C 23.605469 23.203125 23.503906 23.132813 23.390625 23.082031 C 23.382813 23.082031 23.378906 23.078125 23.375 23.078125 C 23.253906 23.027344 23.128906 23.003906 23 23 C 22.863281 23 22.703125 22.992188 22.550781 22.992188 C 22.382813 22.992188 22.21875 22.992188 22.027344 22.972656 C 21.957031 22.964844 21.890625 22.953125 21.824219 22.941406 C 21.714844 22.925781 21.605469 22.910156 21.496094 22.886719 C 21.460938 22.878906 21.425781 22.863281 21.394531 22.855469 C 21.253906 22.816406 21.109375 22.773438 20.96875 22.714844 C 20.941406 22.703125 20.910156 22.6875 20.886719 22.671875 C 20.726563 22.601563 20.570313 22.519531 20.410156 22.410156 C 20.410156 22.410156 20.410156 22.414063 20.40625 22.410156 C 20.40625 22.410156 20.402344 22.410156 20.402344 22.40625 C 20.226563 22.289063 20.054688 22.148438 19.878906 21.976563 C 19.878906 21.976563 19.878906 21.976563 19.875 21.972656 C 19.867188 21.964844 19.859375 21.949219 19.847656 21.941406 C 19.691406 21.78125 19.53125 21.59375 19.378906 21.378906 C 19.210938 21.140625 19.039063 20.871094 18.875 20.542969 C 18.839844 20.46875 18.796875 20.402344 18.742188 20.34375 C 18.738281 20.339844 18.734375 20.332031 18.734375 20.328125 C 18.679688 20.273438 18.625 20.222656 18.5625 20.175781 C 18.558594 20.175781 18.558594 20.175781 18.554688 20.171875 C 18.554688 20.171875 18.554688 20.171875 18.550781 20.171875 C 18.488281 20.128906 18.421875 20.09375 18.351563 20.066406 C 18.34375 20.066406 18.332031 20.0625 18.324219 20.058594 C 18.253906 20.035156 18.179688 20.015625 18.105469 20.007813 C 18.101563 20.007813 18.097656 20.007813 18.09375 20.003906 C 18.089844 20.003906 18.085938 20.007813 18.078125 20.003906 C 18.054688 20.003906 18.03125 20.003906 18.007813 20 Z M 31.011719 20 C 30.980469 20 30.945313 20.003906 30.914063 20.003906 C 30.914063 20.003906 30.910156 20.003906 30.910156 20.003906 C 30.910156 20.007813 30.90625 20.003906 30.90625 20.003906 C 30.898438 20.007813 30.894531 20.007813 30.890625 20.011719 C 30.820313 20.015625 30.75 20.03125 30.6875 20.054688 C 30.671875 20.058594 30.660156 20.0625 30.648438 20.066406 C 30.578125 20.09375 30.511719 20.128906 30.449219 20.171875 C 30.445313 20.175781 30.441406 20.175781 30.4375 20.179688 C 30.378906 20.222656 30.324219 20.273438 30.273438 20.328125 C 30.269531 20.332031 30.265625 20.335938 30.261719 20.34375 C 30.207031 20.402344 30.160156 20.46875 30.125 20.542969 C 29.960938 20.867188 29.796875 21.136719 29.625 21.375 C 29.464844 21.605469 29.296875 21.804688 29.125 21.972656 C 29.125 21.972656 29.125 21.976563 29.125 21.976563 C 28.964844 22.132813 28.800781 22.261719 28.640625 22.375 C 28.621094 22.386719 28.601563 22.40625 28.582031 22.421875 C 28.441406 22.511719 28.304688 22.582031 28.164063 22.648438 C 28.117188 22.671875 28.070313 22.699219 28.019531 22.71875 C 27.894531 22.769531 27.769531 22.808594 27.644531 22.84375 C 27.597656 22.855469 27.550781 22.875 27.5 22.886719 C 27.394531 22.910156 27.292969 22.929688 27.191406 22.941406 C 27.121094 22.953125 27.046875 22.964844 26.976563 22.972656 C 26.785156 22.992188 26.621094 22.992188 26.453125 22.992188 C 26.300781 22.992188 26.140625 23 26 23 C 25.871094 23.003906 25.746094 23.027344 25.628906 23.078125 C 25.621094 23.078125 25.617188 23.082031 25.609375 23.082031 C 25.5 23.132813 25.402344 23.199219 25.316406 23.28125 C 25.3125 23.285156 25.308594 23.289063 25.304688 23.296875 C 25.21875 23.378906 25.152344 23.480469 25.105469 23.589844 C 25.101563 23.597656 25.097656 23.601563 25.09375 23.609375 C 25.046875 23.726563 25.023438 23.851563 25.019531 23.980469 C 25.019531 26.285156 26.695313 27.957031 29 27.957031 C 29.234375 27.957031 29.457031 27.933594 29.671875 27.898438 C 29.765625 27.882813 29.859375 27.867188 29.949219 27.847656 C 30.082031 27.816406 30.207031 27.777344 30.332031 27.734375 C 30.488281 27.683594 30.636719 27.621094 30.78125 27.546875 C 30.867188 27.507813 30.945313 27.464844 31.027344 27.421875 C 31.136719 27.355469 31.246094 27.289063 31.347656 27.214844 C 31.472656 27.125 31.582031 27.027344 31.6875 26.925781 C 31.730469 26.886719 31.78125 26.859375 31.820313 26.816406 C 31.9375 26.699219 32.042969 26.566406 32.140625 26.4375 C 32.152344 26.421875 32.167969 26.410156 32.175781 26.394531 C 32.207031 26.351563 32.226563 26.3125 32.253906 26.269531 C 32.304688 26.191406 32.351563 26.113281 32.398438 26.03125 C 32.828125 25.304688 32.996094 24.574219 32.980469 23.953125 C 32.980469 23.953125 32.980469 23.949219 32.980469 23.949219 C 32.976563 23.917969 32.96875 23.882813 32.96875 23.851563 C 32.90625 22.46875 32.441406 21.246094 31.773438 20.382813 C 31.773438 20.382813 31.773438 20.382813 31.773438 20.378906 C 31.769531 20.375 31.765625 20.371094 31.761719 20.367188 C 31.714844 20.3125 31.664063 20.261719 31.609375 20.21875 C 31.601563 20.210938 31.59375 20.203125 31.585938 20.199219 C 31.527344 20.152344 31.460938 20.113281 31.390625 20.082031 C 31.386719 20.082031 31.378906 20.078125 31.371094 20.074219 C 31.308594 20.046875 31.242188 20.03125 31.175781 20.015625 C 31.160156 20.015625 31.144531 20.015625 31.128906 20.011719 C 31.089844 20.007813 31.050781 20.003906 31.011719 20 Z M 24.5 28 C 24.125 28 23.898438 28.113281 23.8125 28.300781 C 23.300781 29.789063 22.382813 31 23.609375 31 C 24.152344 31 24.503906 30.183594 24.503906 30.183594 C 24.503906 30.183594 24.515625 30.230469 24.542969 30.308594 C 24.628906 30.539063 24.871094 31 25.476563 31 C 26.511719 31 25.78125 29.945313 25.25 28.4375 C 25.117188 28.046875 24.8125 28 24.5 28 Z M 16.59375 30.675781 C 17.101563 30.832031 17.640625 30.910156 18.199219 30.953125 L 20.8125 40.242188 C 20.921875 40.6875 21.320313 41 21.78125 41 L 22 41 L 22 39.5 C 22 39.222656 22.222656 39 22.5 39 C 22.777344 39 23 39.222656 23 39.5 L 23 41 L 24 41 L 24 39.5 C 24 39.292969 24.125 39.113281 24.304688 39.039063 C 24.363281 39.015625 24.429688 39 24.5 39 C 24.777344 39 25 39.222656 25 39.5 L 25 41 L 26 41 L 26 39.5 C 26 39.292969 26.125 39.113281 26.304688 39.039063 C 26.363281 39.015625 26.429688 39 26.5 39 C 26.777344 39 27 39.222656 27 39.5 L 27 41 L 27.21875 41 C 27.332031 41 27.445313 40.980469 27.546875 40.941406 C 27.859375 40.835938 28.105469 40.578125 28.1875 40.242188 L 30.800781 30.953125 C 31.359375 30.914063 31.902344 30.835938 32.40625 30.683594 L 29.808594 40.75 C 29.464844 42.078125 28.273438 43 26.902344 43 L 22.097656 43 C 20.726563 43 19.535156 42.082031 19.191406 40.75 Z" /></svg>
