<?xml version="1.0"?><svg fill="#7CA0AB" xmlns="http://www.w3.org/2000/svg"  viewBox="0 0 30 30" width="50px" height="50px">    <path d="M 13 2 A 1 1 0 0 0 12 3 C 12 8.057 5 12 5 19 C 5 24.317836 10.763496 27.75594 12.792969 27.978516 A 1 1 0 0 0 13 28 A 1 1 0 0 0 14 27 A 1 1 0 0 0 13.630859 26.224609 A 1 1 0 0 0 13.630859 26.222656 C 12.720859 25.484656 11 23.343672 11 21.388672 C 11 18.179672 14 17 14 17 C 12.289 21.84 17.895437 22.424797 19.023438 27.216797 L 19.025391 27.216797 A 1 1 0 0 0 20 28 A 1 1 0 0 0 20.585938 27.808594 A 1 1 0 0 0 20.638672 27.767578 C 20.801418 27.661885 25 24.885024 25 19 C 25 16.597384 23.798332 12.470502 22.933594 10.642578 C 22.93288 10.641068 22.932354 10.638225 22.931641 10.636719 A 1 1 0 0 0 22.929688 10.632812 A 1 1 0 0 0 22 10 A 1 1 0 0 0 21.017578 10.818359 A 1 1 0 0 0 21.017578 10.822266 C 21.015135 10.833195 20.555826 12.873023 19 14 C 19 9.2883665 15.598363 4.4216134 13.804688 2.4082031 A 1 1 0 0 0 13.716797 2.3046875 A 1 1 0 0 0 13 2 z"/></svg>
