<svg fill="#7CA0AB" xmlns="http://www.w3.org/2000/svg"  viewBox="0 0 50 50" width="50px" height="50px"><path d="M 13 0 C 4.476563 0 1.460938 1.476563 0.59375 2.0625 C 0.488281 2.117188 0.390625 2.191406 0.3125 2.28125 C 0.300781 2.28125 0.292969 2.28125 0.28125 2.28125 L 0.25 2.34375 C 0.214844 2.371094 0.183594 2.402344 0.15625 2.4375 L 0 2.5625 L 0 2.8125 C -0.0078125 2.875 -0.0078125 2.9375 0 3 L 0 49 C -0.00390625 49.359375 0.183594 49.695313 0.496094 49.878906 C 0.808594 50.058594 1.191406 50.058594 1.503906 49.878906 C 1.816406 49.695313 2.003906 49.359375 2 49 L 2 30.65625 C 3.167969 30.183594 6.703125 29 13 29 C 16.535156 29 19.214844 29.789063 22.3125 30.6875 C 26.070313 31.777344 30.324219 33 37 33 C 43.910156 33 49.273438 30.003906 49.5 29.875 L 50 29.59375 L 50 2.3125 L 48.53125 3.125 C 47.28125 3.800781 42.753906 6 37 6 C 32.222656 6 28.898438 4.566406 25.375 3.0625 C 21.828125 1.550781 18.15625 0 13 0 Z"/></svg>
