<?xml version="1.0"?><svg fill="#7CA0AB" xmlns="http://www.w3.org/2000/svg"  viewBox="0 0 30 30" width="50px" height="50px">    <path d="M 26.839844 2.0234375 C 26.737672 2.0386406 26.636516 2.0691875 26.541016 2.1171875 C 26.347016 2.2141875 22.539078 4.1200625 20.205078 5.7890625 L 24.210938 9.7949219 C 25.879938 7.4599219 27.786813 3.6529844 27.882812 3.4589844 C 28.074813 3.0749844 27.997359 2.6106406 27.693359 2.3066406 C 27.464609 2.0778906 27.146359 1.9778281 26.839844 2.0234375 z M 18.675781 7.0898438 L 10.757812 15 L 5.9980469 15 C 5.7320469 15 5.4790156 15.104969 5.2910156 15.292969 L 2.2910156 18.292969 C 2.0050156 18.578969 1.9192187 19.008813 2.0742188 19.382812 C 2.2282187 19.755813 2.5940469 20 2.9980469 20 L 7.6640625 20 L 8.125 20.460938 L 5.2929688 23.292969 A 1.0001 1.0001 0 1 0 6.7070312 24.707031 L 9.5390625 21.875 L 9.9980469 22.333984 L 9.9980469 27 C 9.9980469 27.404 10.241234 27.768828 10.615234 27.923828 C 10.739234 27.974828 10.869047 28 10.998047 28 C 11.258047 28 11.514078 27.898031 11.705078 27.707031 L 14.705078 24.707031 C 14.893078 24.520031 14.998047 24.265 14.998047 24 L 14.998047 19.238281 L 22.910156 11.324219 L 18.675781 7.0898438 z"/></svg>
